<svg xmlns="http://www.w3.org/2000/svg" width="692.1404418945312" height="128.2860107421875" viewBox="-432.293212890625 -156.0671844482422 692.1404418945312 128.2860107421875"><title>Neo4j Graph Visualization</title><desc>Created using Neo4j (http://www.neo4j.com/)</desc><g class="layer relationships"><g class="relationship" transform="translate(-236.6731222324632 -124.08037555200872) rotate(360.20616380345643)"><path class="outline" fill="#A5ABB6" stroke="none" d="M 25 0.5 L 38.540837313969774 0.5 L 38.540837313969774 -0.5 L 25 -0.5 Z M 102.32599356396977 0.5 L 115.86683087793955 0.5 L 115.86683087793955 3.5 L 122.86683087793955 0 L 115.86683087793955 -3.5 L 115.86683087793955 -0.5 L 102.32599356396977 -0.5 Z"/><text text-anchor="middle" pointer-events="none" font-size="8px" fill="#000000" x="70.43341543896977" y="3" font-family="sans-serif">FOR_SUBJECT</text></g><g class="relationship" transform="translate(102.98678954013263 -124.68991659140958) rotate(539.6589670895257)"><path class="outline" fill="#A5ABB6" stroke="none" d="M 25 0.5 L 40.27762406380299 0.5 L 40.27762406380299 -0.5 L 25 -0.5 Z M 144.519811563803 0.5 L 159.79743562760598 0.5 L 159.79743562760598 3.5 L 166.79743562760598 0 L 159.79743562760598 -3.5 L 159.79743562760598 -0.5 L 144.519811563803 -0.5 Z"/><text text-anchor="middle" pointer-events="none" font-size="8px" fill="#000000" x="92.39871781380299" y="3" transform="rotate(180 92.39871781380299 0)" font-family="sans-serif">PROVIDES_PROFICENCY</text></g><g class="relationship" transform="translate(-236.6731222324632 -124.08037555200872) rotate(360.6165647351673)"><path class="outline" fill="#A5ABB6" stroke="none" d="M 6.953439040707552 24.018736134675446 L 17.306200844808384 62.65576918623819 A 17.916697508022974 17.916697508022974 0 1 1 -17.306200844808384 62.65576918623819 L -8.765172356425198 30.780216918698923 L -4.901469051268926 31.815493099109005 L -6.4704761275630185 24.148145657226706 L -11.662949835292403 30.00375978339136 L -7.79924653013613 31.039035963801442 L -16.340275018519314 62.91458823134071 A 16.916697508022974 16.916697508022974 0 1 0 16.340275018519314 62.91458823134071 L 5.987513214418485 24.277555179777966 Z"/><text text-anchor="middle" pointer-events="none" font-size="8px" fill="#000000" x="0" y="94.20964923467838" font-family="sans-serif">REQUIRE…</text></g><g class="relationship" transform="translate(-403.29322657509096 -127.06718286546675) rotate(361.0269656668782)"><path class="outline" fill="#A5ABB6" stroke="none" d="M 25 0.5 L 27.481639487580324 0.5 L 27.481639487580324 -0.5 L 25 -0.5 Z M 132.1652332375803 0.5 L 134.64687272516065 0.5 L 134.64687272516065 3.5 L 141.64687272516065 0 L 134.64687272516065 -3.5 L 134.64687272516065 -0.5 L 132.1652332375803 -0.5 Z"/><text text-anchor="middle" pointer-events="none" font-size="8px" fill="#000000" x="79.82343636258032" y="3" font-family="sans-serif">REQUIRES_PROFICENCY</text></g><g class="relationship" transform="translate(102.98678954013263 -124.68991659140958) rotate(361.94085746851204)"><path class="outline" fill="#A5ABB6" stroke="none" d="M 25 0.5 L 36.57239275662443 0.5 L 36.57239275662443 -0.5 L 25 -0.5 Z M 84.36145525662442 0.5 L 95.93384801324886 0.5 L 95.93384801324886 3.5 L 102.93384801324886 0 L 95.93384801324886 -3.5 L 95.93384801324886 -0.5 L 84.36145525662442 -0.5 Z"/><text text-anchor="middle" pointer-events="none" font-size="8px" fill="#000000" x="60.46692400662443" y="3" font-family="sans-serif">METADATA</text></g></g><g class="layer nodes"><g class="node" transform="translate(230.84724433037752,-120.35706899325861)"><circle class="outline" cx="0" cy="0" r="25" fill="#ECB5C9" stroke="#da7298" stroke-width="2px"/><text text-anchor="middle" pointer-events="none" font-family="sans-serif" dy="1.5625" font-size="25" fill="#604A0E"/><text text-anchor="middle" pointer-events="none" y="5" font-size="10px" fill="#604A0E" font-family="sans-serif"> </text></g><g class="node" transform="translate(102.98678954013263,-124.68991659140958)"><circle class="outline" cx="0" cy="0" r="25" fill="#8DCC93" stroke="#5db665" stroke-width="2px"/><text text-anchor="middle" pointer-events="none" font-family="sans-serif" dy="1.5625" font-size="25" fill="#604A0E"/><text text-anchor="middle" pointer-events="none" y="5" font-size="10px" fill="#604A0E" font-family="sans-serif"> Learning…</text></g><g class="node" transform="translate(-403.29322657509096,-127.06718286546675)"><circle class="outline" cx="0" cy="0" r="25" fill="#F16667" stroke="#eb2728" stroke-width="2px"/><text text-anchor="middle" pointer-events="none" font-family="sans-serif" dy="1.5625" font-size="25" fill="#FFFFFF"/><text text-anchor="middle" pointer-events="none" y="5" font-size="10px" fill="#FFFFFF" font-family="sans-serif"> Career</text></g><g class="node" transform="translate(-88.8072485923933,-123.54831677324202)"><circle class="outline" cx="0" cy="0" r="25" fill="#D9C8AE" stroke="#c0a378" stroke-width="2px"/><text text-anchor="middle" pointer-events="none" font-family="sans-serif" dy="1.5625" font-size="25" fill="#604A0E"/><text text-anchor="middle" pointer-events="none" y="5" font-size="10px" fill="#604A0E" font-family="sans-serif"> Subject</text></g><g class="node" transform="translate(-236.6731222324632,-124.08037555200872)"><circle class="outline" cx="0" cy="0" r="25" fill="#4C8EDA" stroke="#2870c2" stroke-width="2px"/><text text-anchor="middle" pointer-events="none" font-family="sans-serif" dy="1.5625" font-size="25" fill="#FFFFFF"/><text text-anchor="middle" pointer-events="none" y="5" font-size="10px" fill="#FFFFFF" font-family="sans-serif"> </text></g></g></svg>